<svg xmlns="http://www.w3.org/2000/svg" width="640" height="420" viewBox="0 0 640 420">
<rect width="640" height="420" fill="white"/>
<text x="320.0" y="24" font-family="sans-serif" font-size="14" text-anchor="middle">F1 vs threshold (event-based)</text>
<line x1="60" y1="370" x2="620" y2="370" stroke="#333"/>
<line x1="60" y1="370" x2="60" y2="40" stroke="#333"/>
<line x1="60.0" y1="370" x2="60.0" y2="374" stroke="#333"/>
<text x="60.0" y="388" font-family="sans-serif" font-size="10" text-anchor="middle">0.20</text>
<line x1="171.99999999999997" y1="370" x2="171.99999999999997" y2="374" stroke="#333"/>
<text x="171.99999999999997" y="388" font-family="sans-serif" font-size="10" text-anchor="middle">0.34</text>
<line x1="284.0" y1="370" x2="284.0" y2="374" stroke="#333"/>
<text x="284.0" y="388" font-family="sans-serif" font-size="10" text-anchor="middle">0.48</text>
<line x1="395.99999999999994" y1="370" x2="395.99999999999994" y2="374" stroke="#333"/>
<text x="395.99999999999994" y="388" font-family="sans-serif" font-size="10" text-anchor="middle">0.62</text>
<line x1="508.0000000000001" y1="370" x2="508.0000000000001" y2="374" stroke="#333"/>
<text x="508.0000000000001" y="388" font-family="sans-serif" font-size="10" text-anchor="middle">0.76</text>
<line x1="620.0" y1="370" x2="620.0" y2="374" stroke="#333"/>
<text x="620.0" y="388" font-family="sans-serif" font-size="10" text-anchor="middle">0.90</text>
<line x1="56" y1="370.0" x2="60" y2="370.0" stroke="#333"/>
<text x="52" y="373.0" font-family="sans-serif" font-size="10" text-anchor="end">0.00</text>
<line x1="56" y1="304.0" x2="60" y2="304.0" stroke="#333"/>
<text x="52" y="307.0" font-family="sans-serif" font-size="10" text-anchor="end">0.09</text>
<line x1="56" y1="238.0" x2="60" y2="238.0" stroke="#333"/>
<text x="52" y="241.0" font-family="sans-serif" font-size="10" text-anchor="end">0.17</text>
<line x1="56" y1="172.0" x2="60" y2="172.0" stroke="#333"/>
<text x="52" y="175.0" font-family="sans-serif" font-size="10" text-anchor="end">0.26</text>
<line x1="56" y1="105.99999999999999" x2="60" y2="105.99999999999999" stroke="#333"/>
<text x="52" y="108.99999999999999" font-family="sans-serif" font-size="10" text-anchor="end">0.34</text>
<line x1="56" y1="40.0" x2="60" y2="40.0" stroke="#333"/>
<text x="52" y="43.0" font-family="sans-serif" font-size="10" text-anchor="end">0.43</text>
<text x="320.0" y="410" font-family="sans-serif" font-size="12" text-anchor="middle">threshold</text>
<text x="14" y="210.0" font-family="sans-serif" font-size="12" text-anchor="middle" transform="rotate(-90 14,210.0)">F1</text>
<line x1="380.0" y1="40" x2="380.0" y2="370" stroke="#999" stroke-dasharray="4,4"/>
<polyline fill="none" stroke="#4C72B0" stroke-width="2" points="60.0,370.0 100.0,367.8 140.0,362.3 180.0,359.9 220.0,354.7 260.0,337.4 300.0,282.4 340.0,165.8 380.0,70.0 420.0,84.7 460.0,111.8 500.0,197.0 540.0,252.3 580.0,265.5 620.0,299.7"/>
<circle cx="60.0" cy="370.0" r="3" fill="#4C72B0"/>
<circle cx="100.0" cy="367.8" r="3" fill="#4C72B0"/>
<circle cx="140.0" cy="362.3" r="3" fill="#4C72B0"/>
<circle cx="180.0" cy="359.9" r="3" fill="#4C72B0"/>
<circle cx="220.0" cy="354.7" r="3" fill="#4C72B0"/>
<circle cx="260.0" cy="337.4" r="3" fill="#4C72B0"/>
<circle cx="300.0" cy="282.4" r="3" fill="#4C72B0"/>
<circle cx="340.0" cy="165.8" r="3" fill="#4C72B0"/>
<circle cx="380.0" cy="70.0" r="3" fill="#4C72B0"/>
<circle cx="420.0" cy="84.7" r="3" fill="#4C72B0"/>
<circle cx="460.0" cy="111.8" r="3" fill="#4C72B0"/>
<circle cx="500.0" cy="197.0" r="3" fill="#4C72B0"/>
<circle cx="540.0" cy="252.3" r="3" fill="#4C72B0"/>
<circle cx="580.0" cy="265.5" r="3" fill="#4C72B0"/>
<circle cx="620.0" cy="299.7" r="3" fill="#4C72B0"/>
</svg>