<svg xmlns="http://www.w3.org/2000/svg" width="640" height="420" viewBox="0 0 640 420">
<rect width="640" height="420" fill="white"/>
<text x="320.0" y="24" font-family="sans-serif" font-size="14" text-anchor="middle">Precision/Recall vs threshold (event-based)</text>
<line x1="60" y1="370" x2="620" y2="370" stroke="#333"/>
<line x1="60" y1="370" x2="60" y2="40" stroke="#333"/>
<line x1="60.0" y1="370" x2="60.0" y2="374" stroke="#333"/>
<text x="60.0" y="388" font-family="sans-serif" font-size="10" text-anchor="middle">0.20</text>
<line x1="171.99999999999997" y1="370" x2="171.99999999999997" y2="374" stroke="#333"/>
<text x="171.99999999999997" y="388" font-family="sans-serif" font-size="10" text-anchor="middle">0.34</text>
<line x1="284.0" y1="370" x2="284.0" y2="374" stroke="#333"/>
<text x="284.0" y="388" font-family="sans-serif" font-size="10" text-anchor="middle">0.48</text>
<line x1="395.99999999999994" y1="370" x2="395.99999999999994" y2="374" stroke="#333"/>
<text x="395.99999999999994" y="388" font-family="sans-serif" font-size="10" text-anchor="middle">0.62</text>
<line x1="508.0000000000001" y1="370" x2="508.0000000000001" y2="374" stroke="#333"/>
<text x="508.0000000000001" y="388" font-family="sans-serif" font-size="10" text-anchor="middle">0.76</text>
<line x1="620.0" y1="370" x2="620.0" y2="374" stroke="#333"/>
<text x="620.0" y="388" font-family="sans-serif" font-size="10" text-anchor="middle">0.90</text>
<line x1="56" y1="370.0" x2="60" y2="370.0" stroke="#333"/>
<text x="52" y="373.0" font-family="sans-serif" font-size="10" text-anchor="end">0.00</text>
<line x1="56" y1="304.0" x2="60" y2="304.0" stroke="#333"/>
<text x="52" y="307.0" font-family="sans-serif" font-size="10" text-anchor="end">0.11</text>
<line x1="56" y1="238.0" x2="60" y2="238.0" stroke="#333"/>
<text x="52" y="241.0" font-family="sans-serif" font-size="10" text-anchor="end">0.23</text>
<line x1="56" y1="172.0" x2="60" y2="172.0" stroke="#333"/>
<text x="52" y="175.0" font-family="sans-serif" font-size="10" text-anchor="end">0.34</text>
<line x1="56" y1="105.99999999999999" x2="60" y2="105.99999999999999" stroke="#333"/>
<text x="52" y="108.99999999999999" font-family="sans-serif" font-size="10" text-anchor="end">0.46</text>
<line x1="56" y1="40.0" x2="60" y2="40.0" stroke="#333"/>
<text x="52" y="43.0" font-family="sans-serif" font-size="10" text-anchor="end">0.57</text>
<text x="320.0" y="410" font-family="sans-serif" font-size="12" text-anchor="middle">threshold</text>
<text x="14" y="210.0" font-family="sans-serif" font-size="12" text-anchor="middle" transform="rotate(-90 14,210.0)">score</text>
<line x1="380.0" y1="40" x2="380.0" y2="370" stroke="#999" stroke-dasharray="4,4"/>
<polyline fill="none" stroke="#4C72B0" stroke-width="2" points="60.0,370.0 100.0,369.1 140.0,367.0 180.0,366.1 220.0,364.0 260.0,357.1 300.0,332.2 340.0,251.2 380.0,107.5 420.0,70.0 460.0,71.8 500.0,95.1 540.0,133.6 580.0,131.7 620.0,135.8"/>
<circle cx="60.0" cy="370.0" r="3" fill="#4C72B0"/>
<circle cx="100.0" cy="369.1" r="3" fill="#4C72B0"/>
<circle cx="140.0" cy="367.0" r="3" fill="#4C72B0"/>
<circle cx="180.0" cy="366.1" r="3" fill="#4C72B0"/>
<circle cx="220.0" cy="364.0" r="3" fill="#4C72B0"/>
<circle cx="260.0" cy="357.1" r="3" fill="#4C72B0"/>
<circle cx="300.0" cy="332.2" r="3" fill="#4C72B0"/>
<circle cx="340.0" cy="251.2" r="3" fill="#4C72B0"/>
<circle cx="380.0" cy="107.5" r="3" fill="#4C72B0"/>
<circle cx="420.0" cy="70.0" r="3" fill="#4C72B0"/>
<circle cx="460.0" cy="71.8" r="3" fill="#4C72B0"/>
<circle cx="500.0" cy="95.1" r="3" fill="#4C72B0"/>
<circle cx="540.0" cy="133.6" r="3" fill="#4C72B0"/>
<circle cx="580.0" cy="131.7" r="3" fill="#4C72B0"/>
<circle cx="620.0" cy="135.8" r="3" fill="#4C72B0"/>
<polyline fill="none" stroke="#DD8452" stroke-width="2" points="60.0,370.0 100.0,349.0 140.0,295.5 180.0,289.7 220.0,250.3 260.0,167.3 300.0,126.1 340.0,156.4 380.0,174.2 420.0,204.5 460.0,227.3 500.0,285.4 540.0,315.9 580.0,323.3 620.0,340.4"/>
<circle cx="60.0" cy="370.0" r="3" fill="#DD8452"/>
<circle cx="100.0" cy="349.0" r="3" fill="#DD8452"/>
<circle cx="140.0" cy="295.5" r="3" fill="#DD8452"/>
<circle cx="180.0" cy="289.7" r="3" fill="#DD8452"/>
<circle cx="220.0" cy="250.3" r="3" fill="#DD8452"/>
<circle cx="260.0" cy="167.3" r="3" fill="#DD8452"/>
<circle cx="300.0" cy="126.1" r="3" fill="#DD8452"/>
<circle cx="340.0" cy="156.4" r="3" fill="#DD8452"/>
<circle cx="380.0" cy="174.2" r="3" fill="#DD8452"/>
<circle cx="420.0" cy="204.5" r="3" fill="#DD8452"/>
<circle cx="460.0" cy="227.3" r="3" fill="#DD8452"/>
<circle cx="500.0" cy="285.4" r="3" fill="#DD8452"/>
<circle cx="540.0" cy="315.9" r="3" fill="#DD8452"/>
<circle cx="580.0" cy="323.3" r="3" fill="#DD8452"/>
<circle cx="620.0" cy="340.4" r="3" fill="#DD8452"/>
<rect x="510" y="50" width="10" height="10" fill="#4C72B0"/>
<text x="524" y="59" font-family="sans-serif" font-size="10">precision</text>
<rect x="510" y="66" width="10" height="10" fill="#DD8452"/>
<text x="524" y="75" font-family="sans-serif" font-size="10">recall</text>
</svg>